<svg width="64" height="64" viewBox="0 0 64 64" fill="none" xmlns="http://www.w3.org/2000/svg">
<rect width="64" height="64" rx="12" fill="#EEF2FF"/>
<g clip-path="url(#clip0_34_577)">
<path fill-rule="evenodd" clip-rule="evenodd" d="M31.9397 14.4999C34.1504 14.4999 38.5717 20.8477 38.5717 26.2537C38.5717 29.8267 35.6001 34.0895 31.9397 34.0895C28.2793 34.0895 25.3076 29.8267 25.3076 26.2537C25.3076 20.8477 29.7289 14.4999 31.9397 14.4999Z" fill="#4F46E5"/>
<path d="M33.2661 32.7845H30.6133V49.4003H33.2661V32.7845Z" fill="#4F46E5"/>
<path d="M42.1001 41.5027L39.8145 40.2059L36.4028 46.0131L38.6884 47.3099L42.1001 41.5027Z" fill="#4F46E5"/>
<path fill-rule="evenodd" clip-rule="evenodd" d="M50.2656 25.0092C52.1723 26.0906 52.747 33.7642 49.9888 38.4573C48.1658 41.5591 43.4278 43.8061 40.2707 42.0155C37.1137 40.2249 36.7255 35.0705 38.5485 31.9687C41.3067 27.2756 48.3588 23.9277 50.2656 25.0092Z" fill="#4F46E5"/>
<path fill-rule="evenodd" clip-rule="evenodd" d="M13.6147 25.0094C15.5214 23.928 22.5736 27.2758 25.3318 31.9689C27.1547 35.0707 26.7666 40.2251 23.6095 42.0157C20.4525 43.8063 15.7144 41.5593 13.8914 38.4575C11.1333 33.7644 11.7079 26.0909 13.6147 25.0094Z" fill="#4F46E5"/>
<path d="M21.7803 41.5027L24.0659 40.2059L27.4776 46.013L25.192 47.3099L21.7803 41.5027Z" fill="#4F46E5"/>
</g>
<defs>
<clipPath id="clip0_34_577">
<rect width="40" height="35" fill="white" transform="translate(12 14.5)"/>
</clipPath>
</defs>
</svg>
